<svg xmlns="http://www.w3.org/2000/svg" width="18" height="19" viewBox="0 0 18 19" fill="none">
<g clip-path="url(#clip0_5504_2869)">
<path d="M10.5 2.75V5.75C10.5 5.94891 10.579 6.13968 10.7197 6.28033C10.8603 6.42098 11.0511 6.5 11.25 6.5H14.25" stroke="white" stroke-width="1.5" stroke-linecap="round" stroke-linejoin="round"/>
<path d="M8.625 16.25H5.25C4.85218 16.25 4.47064 16.092 4.18934 15.8107C3.90804 15.5294 3.75 15.1478 3.75 14.75V4.25C3.75 3.85218 3.90804 3.47064 4.18934 3.18934C4.47064 2.90804 4.85218 2.75 5.25 2.75H10.5L14.25 6.5V10.25M10.5 14.75H15.75M15.75 14.75L13.5 12.5M15.75 14.75L13.5 17" stroke="white" stroke-width="1.5" stroke-linecap="round" stroke-linejoin="round"/>
</g>
<defs>
<clipPath id="clip0_5504_2869">
<rect width="18" height="18" fill="white" transform="translate(0 0.5)"/>
</clipPath>
</defs>
</svg>