<?xml version="1.0" encoding="UTF-8"?><svg id="_ÎÓÈ_1" xmlns="http://www.w3.org/2000/svg" viewBox="0 0 996.25 996.24"><defs><style>.cls-1{fill:#c9c9c9;}.cls-2{fill:#e5dfdf;}</style></defs><path class="cls-2" d="M996.25,498.12c0,123.45-44.92,236.43-119.31,323.46-91.35,106.9-227.17,174.66-378.82,174.66s-287.46-67.76-378.81-174.66C44.92,734.55,0,621.57,0,498.12,0,223.01,223.02,0,498.12,0s498.13,223.01,498.13,498.12Z"/><path class="cls-1" d="M876.94,821.58c-91.35,106.9-227.17,174.66-378.82,174.66s-287.46-67.76-378.81-174.66c91.35-106.91,227.16-174.67,378.81-174.67s287.47,67.76,378.82,174.67Z"/><circle class="cls-1" cx="498.13" cy="392.25" r="190.56" transform="translate(-131.46 467.11) rotate(-45)"/></svg>