<svg width="21" height="36" viewBox="0 0 21 36" fill="none" xmlns="http://www.w3.org/2000/svg">
<path d="M6.37969 0.0895734C10.5049 -0.531378 14.376 2.14214 15.0295 6.06184L18.5557 27.2215C19.2092 31.1412 16.3955 34.8195 12.2703 35.4404C8.145 36.0614 4.27394 33.3878 3.62046 29.4681L0.0942673 8.30846C-0.55923 4.38876 2.25445 0.710515 6.37969 0.0895734Z" fill="#FF5C5C"/>
<path d="M4.33604 7.96987C4.02292 8.01405 3.81569 8.27943 3.86635 8.56491L4.00909 9.35696C4.05975 9.64244 4.35445 9.83945 4.66758 9.79518C4.98072 9.751 5.18795 9.48562 5.13734 9.20014L4.99452 8.40809C4.94392 8.12261 4.64918 7.92559 4.33604 7.96987Z" fill="#0012AE"/>
<path d="M7.56324 7.35804C7.2471 7.40621 7.03348 7.67537 7.08048 7.96065L7.2129 8.74814C7.25991 9.03342 7.55474 9.22627 7.87088 9.18209C8.18701 9.1379 8.40074 8.86466 8.35374 8.57938L8.22122 7.79189C8.17421 7.50263 7.87948 7.30978 7.56324 7.35804Z" fill="#0012AE"/>
<path d="M7.75796 10.4685L5.15615 10.9337C5.15615 10.9337 4.7967 10.998 5.12914 11.2883C5.42118 11.5457 5.65671 12.2434 6.49951 12.1213C7.54343 11.9691 7.68015 10.9297 7.81856 10.796C7.95698 10.6623 7.88457 10.4458 7.74155 10.4714" fill="white"/>
</svg>
