<svg xmlns="http://www.w3.org/2000/svg" width="20" height="20" viewBox="0 0 20 20" fill="none">
<path d="M3.74041 7.625H11.022C11.9157 7.625 12.6401 8.33388 12.6401 9.20833V16.3333C12.6401 17.2078 11.9157 17.9167 11.022 17.9167H3.74041C2.84674 17.9167 2.12228 17.2078 2.12228 16.3333V9.20833C2.12228 8.33388 2.84674 7.625 3.74041 7.625Z" stroke="#333333" stroke-width="1.1" stroke-linecap="round" stroke-linejoin="round"/>
<path d="M15.8765 12.3749H16.6856C17.1147 12.3749 17.5263 12.2081 17.8298 11.9112C18.1332 11.6142 18.3037 11.2115 18.3037 10.7916V3.66659C18.3037 3.24666 18.1332 2.84393 17.8298 2.547C17.5263 2.25007 17.1147 2.08325 16.6856 2.08325H9.40398C8.97483 2.08325 8.56325 2.25007 8.25979 2.547C7.95633 2.84393 7.78585 3.24666 7.78585 3.66659V4.45825" stroke="#333333" stroke-width="1.1" stroke-linecap="round" stroke-linejoin="round"/>
</svg>