<svg width="21" height="36" viewBox="0 0 21 36" fill="none" xmlns="http://www.w3.org/2000/svg">
<path d="M14.2894 0.166688C9.88937 -0.833312 5.28937 2.76669 3.98937 8.26669L0.389368 23.4667C-1.01063 28.9667 1.48937 34.3667 5.88937 35.3667C10.2894 36.3667 14.8894 32.7667 16.1894 27.2667L19.8894 11.9667C21.0894 6.46669 18.5894 1.16669 14.2894 0.166688Z" fill="#1A8AFF"/>
<path d="M16.8894 6.86669C16.4894 6.76669 16.0894 7.06669 16.0894 7.56669L15.8894 8.86669C15.7894 9.36669 16.0894 9.76669 16.3894 9.86669C16.7894 9.96669 17.1894 9.66669 17.1894 9.16669L17.3894 7.86669C17.4894 7.36669 17.2894 6.86669 16.8894 6.86669Z" fill="white"/>
<path d="M13.1894 5.96669C12.7894 5.86669 12.3894 6.16668 12.3894 6.66668L12.1894 7.96669C12.0894 8.46669 12.3894 8.86669 12.6894 8.96669C13.0894 9.06669 13.4894 8.76669 13.4894 8.26669L13.7894 6.96669C13.8894 6.46669 13.5894 6.06669 13.1894 5.96669Z" fill="white"/>
<path d="M13.2894 9.96669L15.8894 10.5667C15.8894 10.5667 16.2894 10.6667 15.8894 10.9667C15.5894 11.2667 15.2894 11.9667 14.4894 11.7667C13.4894 11.5667 13.3894 10.4667 13.2894 10.2667C13.0894 10.1667 13.1894 9.86669 13.2894 9.96669Z" fill="#FF5C5C"/>
</svg>
