<svg xmlns="http://www.w3.org/2000/svg" width="91" height="84" viewBox="0 0 91 84" fill="none">
  <g filter="url(#filter0_d_2560_12412)">
    <path d="M49.0889 17.1809C66.683 17.1809 80.9983 29.7053 80.9983 45.1016C80.9983 51.4117 78.5892 57.4665 74.1657 62.3327L80.5157 69.7277C81.0262 70.318 81.1419 71.1516 80.8148 71.8576C80.4918 72.5676 79.7818 73.0223 79.004 73.0223H49.0889C31.4949 73.0223 17.1796 60.4979 17.1796 45.1016C17.1796 29.7053 31.4949 17.1809 49.0889 17.1809Z" fill="white"/>
  </g>
  <path d="M31.9111 0C14.317 0 0.00168836 12.5244 0.00168836 27.9207C0.00168836 34.2308 2.41085 40.2856 6.83428 45.1518L0.484318 52.5467C-0.0262323 53.1371 -0.141904 53.9707 0.185167 54.6767C0.50825 55.3867 1.21823 55.8414 1.99602 55.8414H31.9111C49.5051 55.8414 63.8204 43.317 63.8204 27.9207C63.8204 12.5244 49.5051 0 31.9111 0Z" fill="#2196F3"/>
  <path d="M22.5062 22.1935H47.0522C48.1817 22.1935 49.0977 21.2776 49.0977 20.148C49.0977 19.0185 48.1817 18.1025 47.0522 18.1025H22.5062C21.3762 18.1025 20.4607 19.0185 20.4607 20.148C20.4607 21.2776 21.3762 22.1935 22.5062 22.1935Z" fill="white"/>
  <path d="M14.3242 30.3759H47.0522C48.1817 30.3759 49.0977 29.4599 49.0977 28.3304C49.0977 27.2009 48.1817 26.2849 47.0522 26.2849H14.3242C13.1942 26.2849 12.2786 27.2009 12.2786 28.3304C12.2786 29.4599 13.1942 30.3759 14.3242 30.3759Z" fill="white"/>
  <path d="M14.3242 38.5583H47.0522C48.1817 38.5583 49.0977 37.6423 49.0977 36.5128C49.0977 35.3833 48.1817 34.4673 47.0522 34.4673H14.3242C13.1942 34.4673 12.2786 35.3833 12.2786 36.5128C12.2786 37.6423 13.1942 38.5583 14.3242 38.5583Z" fill="white"/>
  <defs>
    <filter id="filter0_d_2560_12412" x="7.17969" y="7.18091" width="83.8188" height="75.8413" filterUnits="userSpaceOnUse" color-interpolation-filters="sRGB">
      <feFlood flood-opacity="0" result="BackgroundImageFix"/>
      <feColorMatrix in="SourceAlpha" type="matrix" values="0 0 0 0 0 0 0 0 0 0 0 0 0 0 0 0 0 0 127 0" result="hardAlpha"/>
      <feOffset/>
      <feGaussianBlur stdDeviation="5"/>
      <feComposite in2="hardAlpha" operator="out"/>
      <feColorMatrix type="matrix" values="0 0 0 0 0 0 0 0 0 0 0 0 0 0 0 0 0 0 0.25 0"/>
      <feBlend mode="normal" in2="BackgroundImageFix" result="effect1_dropShadow_2560_12412"/>
      <feBlend mode="normal" in="SourceGraphic" in2="effect1_dropShadow_2560_12412" result="shape"/>
    </filter>
  </defs>
</svg>