<svg width="240" height="199" viewBox="0 0 240 199" fill="none" xmlns="http://www.w3.org/2000/svg">
<path d="M43.0715 197.489H29.9403C29.5152 197.489 29.1694 197.143 29.1694 196.718V175.173C29.1694 174.748 29.5152 174.402 29.9403 174.402H43.0715C43.4965 174.402 43.8423 174.748 43.8423 175.173V196.718C43.8423 197.143 43.4965 197.489 43.0715 197.489ZM30.7112 195.947H42.3006V175.944H30.7112V195.947Z" fill="#0012AE"/>
<path d="M206.607 118.175H167.007C166.716 118.175 166.45 118.01 166.317 117.75C166.188 117.49 166.214 117.177 166.388 116.944L186.188 90.3535C186.334 90.1575 186.563 90.043 186.807 90.043C187.052 90.043 187.281 90.1575 187.426 90.3535L207.226 116.944C207.4 117.177 207.427 117.49 207.297 117.75C207.167 118.01 206.9 118.175 206.607 118.175ZM168.542 116.633H205.072L186.807 92.1045L168.542 116.633Z" fill="#0012AE"/>
<path d="M206.607 198.168H167.007C166.582 198.168 166.236 197.822 166.236 197.397V119.843C166.236 119.418 166.582 119.072 167.007 119.072H206.607C207.032 119.072 207.378 119.418 207.378 119.843V197.397C207.378 197.822 207.032 198.168 206.607 198.168ZM167.778 196.626H205.836V120.614H167.778V196.626Z" fill="#0012AE"/>
<path d="M53.8153 159.836H19.1968C18.9061 159.836 18.6396 159.67 18.5074 159.41C18.3775 159.151 18.4039 158.838 18.5779 158.604L35.8871 135.359C36.0325 135.163 36.2616 135.049 36.506 135.049C36.7505 135.049 36.9796 135.163 37.1249 135.359L54.4342 158.604C54.6082 158.838 54.6346 159.151 54.5047 159.41C54.3747 159.67 54.1082 159.836 53.8153 159.836ZM20.7319 158.294H52.2802L36.506 137.11L20.7319 158.294Z" fill="#0012AE"/>
<path d="M39.5933 154.889H33.4154C32.9903 154.889 32.6445 154.544 32.6445 154.118V151.031C32.6445 148.903 34.3757 147.172 36.5033 147.172C38.6309 147.172 40.362 148.903 40.362 151.031V154.118C40.362 154.544 40.0162 154.889 39.5911 154.889H39.5933ZM34.1863 153.348H38.8225V151.031C38.8225 149.753 37.7829 148.714 36.5055 148.714C35.228 148.714 34.1885 149.753 34.1885 151.031V153.348H34.1863Z" fill="#0012AE"/>
<path d="M183.239 155.904H174.781C174.356 155.904 174.01 155.558 174.01 155.133V144.81C174.01 144.385 174.356 144.039 174.781 144.039H183.239C183.664 144.039 184.009 144.385 184.009 144.81V155.133C184.009 155.558 183.664 155.904 183.239 155.904ZM175.552 154.362H182.468V145.581H175.552V154.362Z" fill="#0012AE"/>
<path d="M198.83 155.904H190.372C189.947 155.904 189.602 155.558 189.602 155.133V144.81C189.602 144.385 189.947 144.039 190.372 144.039H198.83C199.255 144.039 199.601 144.385 199.601 144.81V155.133C199.601 155.558 199.255 155.904 198.83 155.904ZM191.143 154.362H198.059V145.581H191.143V154.362Z" fill="#0012AE"/>
<path d="M183.239 139.143H174.781C174.356 139.143 174.01 138.797 174.01 138.372V128.049C174.01 127.624 174.356 127.278 174.781 127.278H183.239C183.664 127.278 184.009 127.624 184.009 128.049V138.372C184.009 138.797 183.664 139.143 183.239 139.143ZM175.552 137.601H182.468V128.82H175.552V137.601Z" fill="#0012AE"/>
<path d="M198.83 139.143H190.372C189.947 139.143 189.602 138.797 189.602 138.372V128.049C189.602 127.624 189.947 127.278 190.372 127.278H198.83C199.255 127.278 199.601 127.624 199.601 128.049V138.372C199.601 138.797 199.255 139.143 198.83 139.143ZM191.143 137.601H198.059V128.82H191.143V137.601Z" fill="#0012AE"/>
<path d="M183.239 172.654H174.781C174.356 172.654 174.01 172.308 174.01 171.883V161.56C174.01 161.135 174.356 160.789 174.781 160.789H183.239C183.664 160.789 184.009 161.135 184.009 161.56V171.883C184.009 172.308 183.664 172.654 183.239 172.654ZM175.552 171.112H182.468V162.331H175.552V171.112Z" fill="#0012AE"/>
<path d="M198.83 172.654H190.372C189.947 172.654 189.602 172.308 189.602 171.883V161.56C189.602 161.135 189.947 160.789 190.372 160.789H198.83C199.255 160.789 199.601 161.135 199.601 161.56V171.883C199.601 172.308 199.255 172.654 198.83 172.654ZM191.143 171.112H198.059V162.331H191.143V171.112Z" fill="#0012AE"/>
<path d="M192.003 198.168H181.609C181.184 198.168 180.838 197.822 180.838 197.397V185.437C180.838 182.147 183.517 179.469 186.807 179.469C190.098 179.469 192.776 182.147 192.776 185.437V197.397C192.776 197.822 192.43 198.168 192.005 198.168H192.003ZM182.38 196.626H191.232V185.437C191.232 182.997 189.247 181.01 186.805 181.01C184.362 181.01 182.378 182.997 182.378 185.437V196.626H182.38Z" fill="#0012AE"/>
<path d="M7.83385 196.681C7.40878 196.681 7.06299 196.335 7.06299 195.91V150.2C7.06299 149.774 7.40878 149.429 7.83385 149.429C8.25893 149.429 8.60472 149.774 8.60472 150.2V195.91C8.60472 196.335 8.25893 196.681 7.83385 196.681Z" fill="#0012AE"/>
<path d="M113.836 196.681C113.411 196.681 113.065 196.335 113.065 195.91V150.2C113.065 149.774 113.411 149.429 113.836 149.429C114.261 149.429 114.607 149.774 114.607 150.2V195.91C114.607 196.335 114.261 196.681 113.836 196.681Z" fill="#0012AE"/>
<path d="M7.83386 159.465C7.63564 159.465 7.43962 159.39 7.28985 159.24L3.54564 155.498C3.2439 155.196 3.2439 154.71 3.54564 154.408C3.84738 154.106 4.33413 154.106 4.63587 154.408L8.38007 158.15C8.68181 158.452 8.68181 158.938 8.38007 159.24C8.23031 159.39 8.03208 159.467 7.83386 159.467V159.465Z" fill="#0012AE"/>
<path d="M113.836 159.465C113.638 159.465 113.442 159.39 113.292 159.24L109.548 155.498C109.246 155.196 109.246 154.71 109.548 154.408C109.849 154.106 110.336 154.106 110.638 154.408L114.382 158.15C114.684 158.452 114.684 158.938 114.382 159.24C114.232 159.39 114.034 159.467 113.836 159.467V159.465Z" fill="#0012AE"/>
<path d="M7.83411 166.447C7.68214 166.447 7.52796 166.403 7.39581 166.309C7.04562 166.066 6.95972 165.586 7.202 165.236L11.3052 159.333C11.5475 158.983 12.0276 158.897 12.3778 159.139C12.728 159.382 12.8139 159.862 12.5716 160.212L8.46842 166.115C8.31865 166.331 8.07858 166.445 7.83411 166.445V166.447Z" fill="#0012AE"/>
<path d="M113.836 166.447C113.684 166.447 113.53 166.403 113.398 166.309C113.048 166.066 112.962 165.586 113.204 165.236L117.307 159.333C117.549 158.983 118.03 158.897 118.38 159.139C118.73 159.382 118.816 159.862 118.574 160.212L114.47 166.115C114.321 166.331 114.081 166.445 113.836 166.445V166.447Z" fill="#0012AE"/>
<path d="M7.94189 178.74C7.87802 178.74 7.81194 178.731 7.74807 178.716C7.52782 178.658 2.33218 177.238 0.488713 169.976C-0.548654 165.893 0.228821 157.043 1.30143 150.121C2.37403 143.201 4.25935 134.853 6.33849 132.182C6.71071 131.701 7.10495 131.391 7.51021 131.25C7.61592 131.195 7.73706 131.164 7.8648 131.164H8.01457C8.14232 131.164 8.26125 131.195 8.36697 131.25C8.77443 131.391 9.16867 131.701 9.54089 132.182C11.62 134.853 13.5053 143.201 14.578 150.121C15.6506 157.041 16.4258 165.893 15.3907 169.976C13.5472 177.238 8.35155 178.66 8.1313 178.716C8.06743 178.731 8.00356 178.74 7.93749 178.74H7.94189ZM7.94189 132.743C7.84278 132.807 7.64676 132.97 7.37145 133.386C3.92678 138.595 0.301502 162.961 1.98419 169.595C3.42021 175.249 7.04548 176.846 7.94189 177.161C8.8383 176.846 12.4636 175.249 13.8996 169.595C15.5823 162.961 11.9592 138.597 8.51233 133.386C8.23702 132.97 8.041 132.807 7.94189 132.743Z" fill="#0012AE"/>
<path d="M113.944 178.74C113.88 178.74 113.814 178.731 113.75 178.716C113.53 178.658 108.334 177.238 106.491 169.976C105.453 165.893 106.231 157.043 107.303 150.121C108.376 143.201 110.261 134.853 112.34 132.182C112.713 131.701 113.107 131.391 113.512 131.25C113.618 131.195 113.739 131.164 113.867 131.164H114.017C114.144 131.164 114.263 131.195 114.369 131.25C114.776 131.391 115.171 131.701 115.543 132.182C117.622 134.853 119.507 143.201 120.58 150.121C121.653 157.041 122.428 165.893 121.393 169.976C119.549 177.238 114.354 178.66 114.133 178.716C114.069 178.731 114.006 178.74 113.939 178.74H113.944ZM113.944 132.743C113.845 132.807 113.649 132.97 113.373 133.386C109.929 138.595 106.303 162.961 107.986 169.595C109.422 175.249 113.047 176.846 113.944 177.161C114.84 176.846 118.466 175.249 119.902 169.595C121.584 162.961 117.961 138.597 114.514 133.386C114.239 132.97 114.043 132.807 113.944 132.743Z" fill="#0012AE"/>
<path d="M232.46 197.713C232.035 197.713 231.689 197.424 231.689 197.07V166.356C231.689 166.001 232.035 165.713 232.46 165.713C232.885 165.713 233.231 166.001 233.231 166.356V197.07C233.231 197.424 232.885 197.713 232.46 197.713Z" fill="#0012AE"/>
<path d="M232.46 174.095C232.262 174.095 232.066 174.021 231.916 173.871L228.901 170.856C228.599 170.554 228.599 170.067 228.901 169.765C229.203 169.464 229.69 169.464 229.991 169.765L233.007 172.781C233.308 173.082 233.308 173.569 233.007 173.871C232.857 174.021 232.659 174.098 232.46 174.098V174.095Z" fill="#0012AE"/>
<path d="M232.458 179.72C232.306 179.72 232.152 179.676 232.02 179.581C231.67 179.339 231.584 178.859 231.826 178.508L235.13 173.753C235.372 173.403 235.852 173.317 236.202 173.559C236.553 173.802 236.638 174.282 236.396 174.632L233.092 179.387C232.943 179.603 232.703 179.718 232.458 179.718V179.72Z" fill="#0012AE"/>
<path d="M232.546 189.62C232.482 189.62 232.416 189.612 232.352 189.596C232.172 189.55 227.903 188.383 226.399 182.447C224.866 176.41 228.055 155.839 231.136 151.877C231.454 151.469 231.791 151.203 232.143 151.079C232.246 151.029 232.361 151 232.484 151H232.605C232.729 151 232.843 151.029 232.947 151.079C233.299 151.203 233.636 151.469 233.953 151.877C237.035 155.839 240.224 176.41 238.691 182.447C237.184 188.38 232.918 189.548 232.738 189.596C232.674 189.612 232.61 189.62 232.544 189.62H232.546ZM232.546 152.599C231.872 153.141 230.249 156.649 228.797 165.25C227.562 172.569 227.198 179.328 227.894 182.066C229.004 186.44 231.791 187.755 232.548 188.037C233.321 187.753 236.088 186.449 237.2 182.066C237.896 179.326 237.532 172.569 236.297 165.25C234.845 156.649 233.222 153.139 232.548 152.599H232.546Z" fill="#0012AE"/>
<path d="M217.828 197.899C217.402 197.899 217.057 197.658 217.057 197.362V183.437C217.057 183.141 217.402 182.899 217.828 182.899C218.253 182.899 218.598 183.141 218.598 183.437V197.362C218.598 197.658 218.253 197.899 217.828 197.899Z" fill="#0012AE"/>
<path d="M217.828 188.08C217.632 188.08 217.436 188.005 217.284 187.855L215.337 185.919C215.035 185.62 215.033 185.131 215.332 184.829C215.632 184.528 216.121 184.525 216.422 184.825L218.369 186.761C218.671 187.06 218.673 187.549 218.374 187.851C218.224 188.003 218.026 188.078 217.828 188.078V188.08Z" fill="#0012AE"/>
<path d="M217.828 191.545C217.68 191.545 217.53 191.503 217.398 191.412C217.046 191.175 216.951 190.697 217.189 190.342L219.519 186.878C219.757 186.525 220.235 186.43 220.589 186.668C220.942 186.906 221.037 187.384 220.799 187.739L218.469 191.203C218.319 191.424 218.076 191.545 217.828 191.545Z" fill="#0012AE"/>
<path d="M217.827 194.165C213.513 194.165 210.002 190.655 210.002 186.34C210.002 182.025 213.513 178.515 217.827 178.515C222.142 178.515 225.653 182.025 225.653 186.34C225.653 190.655 222.142 194.165 217.827 194.165ZM217.827 180.056C214.363 180.056 211.544 182.876 211.544 186.34C211.544 189.805 214.363 192.624 217.827 192.624C221.292 192.624 224.111 189.805 224.111 186.34C224.111 182.876 221.292 180.056 217.827 180.056Z" fill="#0012AE"/>
<path d="M53.8152 197.727H19.1966C18.7716 197.727 18.4258 197.381 18.4258 196.956V159.093C18.4258 158.668 18.7716 158.322 19.1966 158.322H53.8152C54.2402 158.322 54.586 158.668 54.586 159.093V196.956C54.586 197.381 54.2402 197.727 53.8152 197.727ZM19.9675 196.185H53.0443V159.864H19.9675V196.185Z" fill="#0012AE"/>
<path d="M82.3675 34.7863H74.579L66.5469 20.5184C66.0997 19.733 65.7252 18.8967 65.4416 18.0349C64.9798 16.6423 64.7471 15.1915 64.7471 13.7262C64.7471 6.15587 70.9066 0 78.4733 0C86.0399 0 92.1994 6.15587 92.1994 13.7262C92.1994 15.1915 91.9667 16.6423 91.505 18.0349L91.4904 18.0749C91.2068 18.9221 90.8395 19.7439 90.3959 20.5184L82.3639 34.7827L82.3675 34.7863ZM75.6408 32.9683H81.3058L88.8179 19.6239C89.2106 18.9367 89.5342 18.2131 89.7778 17.4677L89.7924 17.4241C90.1814 16.2278 90.3814 14.9806 90.3814 13.7262C90.3814 7.15943 85.04 1.81804 78.4733 1.81804C71.9065 1.81804 66.5651 7.15943 66.5651 13.7262C66.5651 14.9988 66.7687 16.2569 67.1687 17.4641C67.416 18.2095 67.7396 18.9367 68.1286 19.6203L75.6408 32.9647V32.9683Z" fill="#0012AE"/>
<path d="M81.2544 43.1176H75.6912C75.1895 43.1176 74.7822 42.7103 74.7822 42.2085V36.6453C74.7822 36.1436 75.1895 35.7363 75.6912 35.7363H81.2544C81.7562 35.7363 82.1635 36.1436 82.1635 36.6453V42.2085C82.1635 42.7103 81.7562 43.1176 81.2544 43.1176ZM76.6003 41.2995H80.3454V37.5544H76.6003V41.2995Z" fill="#0012AE"/>
<path d="M77.3644 34.7863C76.9862 34.7863 76.6372 34.55 76.5063 34.1755C76.0736 32.9247 75.4409 31.4048 74.7719 29.794C72.9284 25.3507 70.6304 19.8202 70.6304 15.526C70.6304 6.04679 75.7791 0 78.4697 0C81.3204 0 85.7201 6.82128 85.7201 15.8896C85.7201 20.5002 83.782 25.4125 82.2258 29.3577C81.535 31.1103 80.8805 32.7683 80.5059 34.1173C80.3714 34.6009 79.8696 34.8845 79.386 34.75C78.9024 34.6154 78.6188 34.1136 78.7534 33.6301C79.1533 32.1865 79.8224 30.4885 80.535 28.6886C82.1131 24.6889 83.902 20.1511 83.902 15.886C83.902 6.93763 79.6333 1.8144 78.4697 1.8144C77.1789 1.8144 72.4484 6.80309 72.4484 15.5224C72.4484 19.453 74.6664 24.798 76.4481 29.0922C77.128 30.7285 77.768 32.2738 78.2189 33.5755C78.3825 34.0482 78.1316 34.5682 77.6589 34.7318C77.5607 34.7645 77.4589 34.7827 77.3607 34.7827L77.3644 34.7863Z" fill="#0012AE"/>
<mask id="mask0_3485_22149" style="mask-type:alpha" maskUnits="userSpaceOnUse" x="187" y="82" width="48" height="31">
<path d="M187.002 90.5L234.002 82V111L203.002 112.5L187.002 90.5Z" fill="#D9D9D9"/>
</mask>
<g mask="url(#mask0_3485_22149)">
<path d="M212.046 111.175H196.045C191.61 111.175 188.002 107.567 188.002 103.131C188.002 99.0213 191.061 95.625 195.074 95.1471C195.898 91.6033 199.12 89 202.811 89C206.503 89 209.778 91.6209 210.566 95.2264C211.053 95.1361 211.549 95.0898 212.046 95.0898C216.482 95.0898 220.09 98.6975 220.09 103.133C220.09 107.569 216.482 111.177 212.046 111.177V111.175ZM202.811 90.5395C199.668 90.5395 196.948 92.8786 196.484 95.9796L196.389 96.6074L195.755 96.636C192.273 96.7902 189.544 99.6424 189.544 103.131C189.544 106.62 192.46 109.633 196.045 109.633H212.046C215.632 109.633 218.548 106.717 218.548 103.131C218.548 99.5455 215.632 96.6294 212.046 96.6294C211.408 96.6294 210.773 96.7219 210.163 96.9069L209.273 97.1756L209.174 96.2506C208.826 92.9953 206.091 90.5395 202.811 90.5395Z" fill="#0012AE"/>
</g>
<path d="M151.648 197.489H138.516C138.091 197.489 137.746 197.143 137.746 196.718V175.173C137.746 174.748 138.091 174.402 138.516 174.402H151.648C152.073 174.402 152.419 174.748 152.419 175.173V196.718C152.419 197.143 152.073 197.489 151.648 197.489ZM139.287 195.947H150.877V175.944H139.287V195.947Z" fill="#0012AE"/>
<path d="M162.391 159.836H127.773C127.482 159.836 127.216 159.67 127.084 159.41C126.954 159.151 126.98 158.838 127.154 158.604L144.463 135.359C144.609 135.163 144.838 135.049 145.082 135.049C145.327 135.049 145.556 135.163 145.701 135.359L163.01 158.604C163.184 158.838 163.211 159.151 163.081 159.41C162.951 159.67 162.684 159.836 162.391 159.836ZM129.308 158.294H160.856L145.082 137.11L129.308 158.294Z" fill="#0012AE"/>
<path d="M148.17 154.888H141.992C141.567 154.888 141.221 154.543 141.221 154.118V151.03C141.221 148.902 142.952 147.171 145.08 147.171C147.208 147.171 148.939 148.902 148.939 151.03V154.118C148.939 154.543 148.593 154.888 148.168 154.888H148.17ZM142.763 153.347H147.399V151.03C147.399 149.752 146.36 148.713 145.082 148.713C143.805 148.713 142.765 149.752 142.765 151.03V153.347H142.763Z" fill="#0012AE"/>
<path d="M162.391 197.727H127.773C127.348 197.727 127.002 197.381 127.002 196.956V159.093C127.002 158.668 127.348 158.322 127.773 158.322H162.391C162.816 158.322 163.162 158.668 163.162 159.093V196.956C163.162 197.381 162.816 197.727 162.391 197.727ZM128.544 196.185H161.62V159.864H128.544V196.185Z" fill="#0012AE"/>
<path d="M190.34 112.956H183.272C182.847 112.956 182.501 112.61 182.501 112.185V108.652C182.501 106.278 184.433 104.349 186.805 104.349C189.177 104.349 191.108 106.28 191.108 108.652V112.185C191.108 112.61 190.762 112.956 190.337 112.956H190.34ZM184.043 111.414H189.569V108.652C189.569 107.128 188.329 105.89 186.807 105.89C185.285 105.89 184.045 107.13 184.045 108.652V111.414H184.043Z" fill="#0012AE"/>
<path d="M48.7634 65.8894C48.2699 62.6128 45.445 60.1016 42.0304 60.1016C38.6158 60.1016 35.6278 62.7613 35.2619 66.178C34.6283 65.9877 33.9571 65.8832 33.2629 65.8832C29.4489 65.8832 26.3584 68.9737 26.3584 72.7876C26.3584 76.6016 29.4489 79.6921 33.2629 79.6921H48.4539C52.2679 79.6921 55.3584 76.5995 55.3584 72.7876C55.3584 68.9757 52.4331 66.0525 48.7634 65.8894Z" fill="white"/>
<path d="M153.761 36.8894C153.268 33.6128 150.443 31.1016 147.028 31.1016C143.614 31.1016 140.626 33.7613 140.26 37.178C139.626 36.9877 138.955 36.8832 138.261 36.8832C134.447 36.8832 131.356 39.9737 131.356 43.7876C131.356 47.6016 134.447 50.6921 138.261 50.6921H153.452C157.266 50.6921 160.356 47.5995 160.356 43.7876C160.356 39.9757 157.431 37.0525 153.761 36.8894Z" fill="#8CC4FF"/>
<path d="M46.0464 78.1767H30.0454C25.6096 78.1767 22.002 74.5691 22.002 70.1333C22.002 65.6975 25.6096 62.0898 30.0454 62.0898C30.5432 62.0898 31.0387 62.1361 31.5255 62.2264C32.3139 58.6231 35.5075 56 39.2804 56C43.0532 56 46.1939 58.6033 47.0177 62.1471C51.0306 62.6273 54.0898 66.0235 54.0898 70.1311C54.0898 74.5669 50.4822 78.1745 46.0464 78.1745V78.1767ZM30.0454 63.6316C26.4598 63.6316 23.5437 66.5477 23.5437 70.1333C23.5437 73.7189 26.4598 76.635 30.0454 76.635H46.0464C49.632 76.635 52.5481 73.7189 52.5481 70.1333C52.5481 66.5477 49.8192 63.7924 46.3371 63.6382L45.7028 63.6096L45.6081 62.9819C45.1412 59.8808 42.4211 57.5417 39.2804 57.5417C36.1396 57.5417 33.2654 59.9975 32.9174 63.2528L32.8183 64.1778L31.9285 63.9091C31.3184 63.7241 30.6841 63.6316 30.0454 63.6316Z" fill="#0012AE"/>
<path d="M151.044 49.1767H135.043C130.608 49.1767 127 45.5691 127 41.1333C127 36.6975 130.608 33.0898 135.043 33.0898C135.541 33.0898 136.037 33.1361 136.524 33.2264C137.312 29.6231 140.506 27 144.278 27C148.051 27 151.192 29.6033 152.016 33.1471C156.029 33.6273 159.088 37.0235 159.088 41.1311C159.088 45.5669 155.48 49.1745 151.044 49.1745V49.1767ZM135.043 34.6316C131.458 34.6316 128.542 37.5477 128.542 41.1333C128.542 44.7189 131.458 47.635 135.043 47.635H151.044C154.63 47.635 157.546 44.7189 157.546 41.1333C157.546 37.5477 154.817 34.7924 151.335 34.6382L150.701 34.6096L150.606 33.9819C150.139 30.8808 147.419 28.5417 144.278 28.5417C141.138 28.5417 138.263 30.9975 137.915 34.2528L137.816 35.1778L136.927 34.9091C136.316 34.7241 135.682 34.6316 135.043 34.6316Z" fill="#0012AE"/>
<path d="M65.984 151.085C62.2427 151.678 59.6908 155.189 60.2835 158.93L63.4816 179.127C64.0742 182.868 67.5851 185.42 71.3265 184.828C75.0678 184.235 77.6197 180.724 77.027 176.983L73.833 156.786C73.2403 153.045 69.7254 150.493 65.984 151.085Z" fill="#8CC4FF"/>
<path d="M97.3587 151.085C93.6173 150.493 90.1065 153.045 89.5138 156.786L86.3157 176.983C85.723 180.724 88.2749 184.235 92.0162 184.828C95.7576 185.42 99.2685 182.868 99.8612 179.127L103.059 158.93C103.652 155.189 101.1 151.678 97.3587 151.085Z" fill="#0012AE"/>
<path d="M81.6738 156.765C78.0806 156.765 75.1707 160.383 75.1707 164.849V177.184C75.1707 181.646 78.0806 185.263 81.6738 185.263C85.267 185.263 88.1769 181.646 88.1769 177.184V164.844C88.1769 160.383 85.267 156.765 81.6738 156.765Z" fill="#FF5C5C"/>
<path d="M99.2519 158.564C99.5317 158.609 99.7168 158.881 99.6715 159.173L99.544 159.983C99.4988 160.275 99.2355 160.477 98.9557 160.432C98.676 160.386 98.4908 160.115 98.5361 159.823L98.6636 159.012C98.7089 158.72 98.9722 158.519 99.2519 158.564Z" fill="#8CC4FF"/>
<path d="M96.3506 158.098C96.655 158.148 96.8607 158.423 96.8154 158.715L96.6879 159.522C96.6426 159.814 96.3588 160.011 96.0544 159.966C95.7499 159.921 95.5442 159.641 95.5895 159.349L95.717 158.542C95.7623 158.246 96.0461 158.049 96.3506 158.098Z" fill="#8CC4FF"/>
<path d="M79.9111 161.659C79.6273 161.676 79.4092 161.926 79.4257 162.223L79.4668 163.041C79.4833 163.338 79.726 163.564 80.0099 163.551C80.2937 163.535 80.5118 163.284 80.4953 162.988L80.4542 162.169C80.4377 161.869 80.195 161.643 79.9111 161.659Z" fill="#0012AE"/>
<path d="M83.3609 161.519C83.0935 161.531 82.8878 161.782 82.9042 162.078L82.9454 162.897C82.9618 163.193 83.1922 163.42 83.4596 163.407C83.727 163.395 83.9327 163.144 83.9163 162.848L83.8751 162.029C83.8628 161.733 83.6324 161.502 83.3609 161.519Z" fill="#0012AE"/>
<path d="M63.8227 157.679C63.5018 157.728 63.2797 158.008 63.3249 158.3L63.4525 159.11C63.4977 159.402 63.798 159.6 64.1189 159.546C64.4398 159.497 64.662 159.217 64.6167 158.925L64.4892 158.119C64.4439 157.827 64.1436 157.629 63.8227 157.679Z" fill="#FF5C5C"/>
<path d="M67.0656 157.21C66.7448 157.259 66.5226 157.539 66.5679 157.831L66.6954 158.641C66.7406 158.933 67.041 159.131 67.3618 159.077C67.6827 159.028 67.9049 158.748 67.8596 158.456L67.7321 157.65C67.6868 157.354 67.3865 157.156 67.0656 157.21Z" fill="#FF5C5C"/>
<path d="M98.5346 162L95.8853 161.486C95.8853 161.486 95.5027 161.362 95.7002 161.704C95.8647 161.992 95.9264 162.547 96.7739 162.736C97.8271 162.967 98.3043 162.296 98.4853 162.247C98.6663 162.198 98.6663 162.025 98.5223 162" fill="#FF5C5C"/>
<path d="M64.8483 160.939C64.8483 160.939 68.2999 160.046 67.8309 160.646C67.6704 160.852 67.6375 161.473 66.7366 161.691C65.6176 161.959 65.0951 161.251 64.9018 161.202C64.7084 161.152 64.7331 160.988 64.8771 160.934" fill="#0012AE"/>
<path d="M64.8483 160.939C64.8483 160.939 68.2999 160.046 67.8309 160.646C67.6704 160.852 67.6375 161.473 66.7366 161.691C65.6176 161.959 65.0951 161.251 64.9018 161.202C64.7084 161.152 64.7331 160.988 64.8771 160.934" stroke="#0012AE" stroke-width="0.202349"/>
<path d="M80.8461 164.486H83.4667C83.4667 164.486 83.8287 164.486 83.5613 164.737C83.3268 164.959 83.2322 165.49 82.3888 165.511C81.3439 165.535 81.0107 164.807 80.8502 164.729C80.6898 164.651 80.7186 164.486 80.8625 164.486" fill="white"/>
<rect x="58.8" y="178.907" width="45.1423" height="12.8679" rx="6.43393" stroke="#0012AE" stroke-width="1.6"/>
<circle cx="70.2422" cy="192.575" r="4.20811" fill="white" stroke="#0012AE" stroke-width="1.6"/>
<circle cx="92.5003" cy="192.575" r="4.20811" fill="white" stroke="#0012AE" stroke-width="1.6"/>
</svg>
