<svg xmlns="http://www.w3.org/2000/svg" width="4" height="20" viewBox="0 0 4 20" fill="none">
<path d="M2.05096 11.1385C2.65161 11.1385 3.13853 10.6516 3.13853 10.051C3.13853 9.4503 2.65161 8.96338 2.05096 8.96338C1.4503 8.96338 0.963379 9.4503 0.963379 10.051C0.963379 10.6516 1.4503 11.1385 2.05096 11.1385Z" fill="black"/>
<path d="M2.05096 18.7513C2.65161 18.7513 3.13853 18.2644 3.13853 17.6637C3.13853 17.0631 2.65161 16.5762 2.05096 16.5762C1.4503 16.5762 0.963379 17.0631 0.963379 17.6637C0.963379 18.2644 1.4503 18.7513 2.05096 18.7513Z" fill="black"/>
<path d="M2.05096 3.52525C2.65161 3.52525 3.13853 3.03833 3.13853 2.43768C3.13853 1.83702 2.65161 1.3501 2.05096 1.3501C1.4503 1.3501 0.963379 1.83702 0.963379 2.43768C0.963379 3.03833 1.4503 3.52525 2.05096 3.52525Z" fill="black"/>
<path fill-rule="evenodd" clip-rule="evenodd" d="M2.05086 2.2C1.91965 2.2 1.81328 2.30637 1.81328 2.43758C1.81328 2.56879 1.91965 2.67516 2.05086 2.67516C2.18207 2.67516 2.28844 2.56879 2.28844 2.43758C2.28844 2.30637 2.18207 2.2 2.05086 2.2ZM0.113281 2.43758C0.113281 1.36748 0.980765 0.5 2.05086 0.5C3.12095 0.5 3.98844 1.36748 3.98844 2.43758C3.98844 3.50767 3.12095 4.37515 2.05086 4.37515C0.980765 4.37515 0.113281 3.50767 0.113281 2.43758ZM2.05086 9.81328C1.91965 9.81328 1.81328 9.91965 1.81328 10.0509C1.81328 10.1821 1.91965 10.2884 2.05086 10.2884C2.18207 10.2884 2.28844 10.1821 2.28844 10.0509C2.28844 9.91965 2.18207 9.81328 2.05086 9.81328ZM0.113281 10.0509C0.113281 8.98076 0.980764 8.11328 2.05086 8.11328C3.12095 8.11328 3.98844 8.98076 3.98844 10.0509C3.98844 11.121 3.12095 11.9884 2.05086 11.9884C0.980764 11.9884 0.113281 11.121 0.113281 10.0509ZM2.05086 17.4261C1.91965 17.4261 1.81328 17.5324 1.81328 17.6637C1.81328 17.7949 1.91965 17.9012 2.05086 17.9012C2.18207 17.9012 2.28844 17.7949 2.28844 17.6637C2.28844 17.5324 2.18207 17.4261 2.05086 17.4261ZM0.113281 17.6637C0.113281 16.5936 0.980764 15.7261 2.05086 15.7261C3.12095 15.7261 3.98844 16.5936 3.98844 17.6637C3.98844 18.7337 3.12095 19.6012 2.05086 19.6012C0.980764 19.6012 0.113281 18.7337 0.113281 17.6637Z" fill="black"/>
</svg>