<svg width="40" height="27" viewBox="0 0 40 27" fill="none" xmlns="http://www.w3.org/2000/svg">
<path d="M28.0228 22.7665H29.352C29.4548 22.7665 29.54 22.7327 29.6075 22.6636C29.6751 22.5961 29.7103 22.5109 29.7103 22.4081V17.416C29.7103 17.3132 29.6766 17.228 29.6075 17.1604C29.54 17.0929 29.4548 17.0576 29.352 17.0576H28.0228C27.92 17.0576 27.8348 17.0914 27.7673 17.1604C27.6997 17.228 27.6644 17.3132 27.6644 17.416V22.4081C27.6644 22.5109 27.6982 22.5961 27.7673 22.6636C27.8363 22.7327 27.9215 22.7665 28.0228 22.7665ZM33.8829 22.7665H35.2121C35.3149 22.7665 35.4001 22.7327 35.4677 22.6636C35.5352 22.5961 35.5705 22.5109 35.5705 22.4081V13.5151C35.5705 13.311 35.5 13.1377 35.3575 12.9952C35.215 12.8527 35.0417 12.7822 34.8376 12.7822H28.0228C27.92 12.7822 27.8348 12.816 27.7673 12.885C27.6997 12.9526 27.6644 13.0378 27.6644 13.1406V14.4184C27.6644 14.5212 27.6982 14.6064 27.7673 14.6739C27.8363 14.7415 27.92 14.7767 28.0228 14.7767L33.526 14.7943V22.4096C33.526 22.5124 33.5598 22.5976 33.6288 22.6651C33.6964 22.7327 33.7816 22.7665 33.8829 22.7665ZM14.7017 22.7665H16.0309C16.1337 22.7665 16.2189 22.7327 16.2864 22.6636C16.354 22.5961 16.3892 22.5109 16.3892 22.4081V13.5151C16.3892 13.311 16.3187 13.1377 16.1763 12.9952C16.0338 12.8527 15.862 12.7822 15.6563 12.7822H9.88142C9.77861 12.7822 9.69342 12.816 9.62586 12.885C9.5583 12.9526 9.52305 13.0378 9.52305 13.1406V14.436C9.52305 14.5388 9.55684 14.624 9.62586 14.6915C9.69342 14.7591 9.77861 14.7943 9.88142 14.7943H14.3448V22.4096C14.3448 22.5124 14.3786 22.5976 14.4476 22.6651C14.5137 22.7327 14.5989 22.7665 14.7017 22.7665ZM5.33285 26.2429H9.70224C9.80505 26.2429 9.89023 26.2091 9.95779 26.1401C10.0253 26.0725 10.0606 25.9873 10.0606 25.8845V24.6405C10.0606 24.5377 10.0268 24.4525 9.95779 24.385C9.89023 24.3174 9.80505 24.2822 9.70224 24.2822H6.6444V14.7929H7.71802C7.82083 14.7929 7.90602 14.7591 7.97358 14.6901C8.04114 14.6225 8.07638 14.5373 8.07638 14.4345V13.1391C8.07638 13.0363 8.0426 12.9511 7.97358 12.8836C7.90602 12.816 7.82083 12.7808 7.71802 12.7808H0.358363C0.255554 12.7808 0.170369 12.8145 0.102809 12.8836C0.0352484 12.9511 0 13.0363 0 13.1391V14.4345C0 14.5373 0.0337797 14.6225 0.102809 14.6901C0.170369 14.7576 0.255554 14.7929 0.358363 14.7929H4.59997V25.5085C4.59997 25.7127 4.67047 25.886 4.81293 26.0284C4.95393 26.1709 5.12723 26.2429 5.33285 26.2429Z" fill="#0012AE"/>
<path d="M22.541 22.7665H23.8702C23.973 22.7665 24.0582 22.7327 24.1258 22.6636C24.1933 22.5961 24.2286 22.5109 24.2286 22.4081V14.7929H25.5739C25.6767 14.7929 25.7619 14.7591 25.8294 14.6901C25.897 14.6225 25.9323 14.5373 25.9323 14.4345V13.1391C25.9323 13.0363 25.8985 12.9511 25.8294 12.8836C25.7619 12.816 25.6767 12.7808 25.5739 12.7808H18.248C18.1452 12.7808 18.06 12.8145 17.9925 12.8836C17.9249 12.9526 17.8896 13.0363 17.8896 13.1391V14.4345C17.8896 14.5373 17.9234 14.6225 17.9925 14.6901C18.06 14.7576 18.1452 14.7929 18.248 14.7929H22.1827V22.4081C22.1827 22.5109 22.2164 22.5961 22.2855 22.6636C22.353 22.7327 22.4382 22.7665 22.541 22.7665Z" fill="#0012AE"/>
<path d="M28.2066 26.2264H28.4636C28.4841 26.2264 28.5003 26.219 28.5135 26.2058C28.5267 26.1926 28.5341 26.175 28.5341 26.1559V25.1674C28.5341 25.1469 28.5267 25.1307 28.5135 25.1175C28.5003 25.1043 28.4841 25.0969 28.4636 25.0969H28.2066C28.1875 25.0969 28.1698 25.1043 28.1566 25.1175C28.1434 25.1307 28.1361 25.1484 28.1361 25.1674V26.1559C28.1361 26.1764 28.1419 26.1926 28.1566 26.2058C28.1698 26.2205 28.186 26.2264 28.2066 26.2264ZM29.3419 26.2264H29.5989C29.618 26.2264 29.6356 26.219 29.6488 26.2058C29.662 26.1926 29.6694 26.175 29.6694 26.1559V24.3964C29.6694 24.3553 29.6562 24.3215 29.6283 24.2936C29.6004 24.2657 29.5666 24.251 29.5269 24.251H28.2051C28.186 24.251 28.1684 24.2583 28.1551 24.2715C28.1419 24.2848 28.1346 24.3024 28.1346 24.3215V24.5741C28.1346 24.5947 28.1405 24.6108 28.1551 24.624C28.1684 24.6372 28.1845 24.6446 28.2051 24.6446L29.2714 24.6475V26.1544C29.2714 26.175 29.2787 26.1911 29.2919 26.2043C29.3051 26.2176 29.3228 26.2264 29.3419 26.2264ZM27.1491 26.2264H27.4061C27.4252 26.2264 27.4428 26.219 27.456 26.2058C27.4693 26.1926 27.4751 26.175 27.4751 26.1559V24.649H27.7366C27.7571 24.649 27.7733 24.6417 27.7865 24.6284C27.7997 24.6152 27.8056 24.5976 27.8056 24.5785V24.3229C27.8056 24.3024 27.7997 24.2862 27.7865 24.273C27.7733 24.2598 27.7571 24.2524 27.7366 24.2524H26.3163C26.2972 24.2524 26.2796 24.2598 26.2664 24.273C26.2532 24.2862 26.2473 24.3038 26.2473 24.3229V24.5785C26.2473 24.5991 26.2532 24.6152 26.2664 24.6284C26.2796 24.6417 26.2958 24.649 26.3163 24.649H27.0801V26.1559C27.0801 26.1764 27.0859 26.1926 27.0992 26.2058C27.1124 26.219 27.13 26.2264 27.1491 26.2264ZM25.557 26.2264H25.814C25.8346 26.2264 25.8508 26.219 25.864 26.2058C25.8772 26.1926 25.8845 26.175 25.8845 26.1559V24.3964C25.8845 24.3553 25.8713 24.3215 25.8434 24.2936C25.8155 24.2657 25.7817 24.251 25.7421 24.251H24.6229C24.6024 24.251 24.5862 24.2583 24.573 24.2715C24.5598 24.2848 24.5524 24.3024 24.5524 24.3215V24.577C24.5524 24.5976 24.5598 24.6137 24.573 24.627C24.5862 24.6402 24.6024 24.6475 24.6229 24.6475H25.488V26.1544C25.488 26.175 25.4939 26.1911 25.5071 26.2043C25.5218 26.2205 25.5379 26.2264 25.557 26.2264ZM23.658 26.7155H24.1206C24.1397 26.7155 24.1573 26.7081 24.1706 26.6949C24.1838 26.6817 24.1897 26.664 24.1897 26.645V26.3982C24.1897 26.3777 24.1838 26.3615 24.1706 26.3483C24.1573 26.3351 24.1412 26.3277 24.1206 26.3277H23.9121V24.649H24.1206C24.1397 24.649 24.1573 24.6417 24.1706 24.6284C24.1838 24.6152 24.1897 24.5976 24.1897 24.5785V24.3229C24.1897 24.3024 24.1838 24.2862 24.1706 24.273C24.1573 24.2598 24.1412 24.2524 24.1206 24.2524H22.6945C22.6754 24.2524 22.6578 24.2598 22.6446 24.273C22.6314 24.2862 22.624 24.3038 22.624 24.3229V24.5785C22.624 24.5991 22.6314 24.6152 22.6446 24.6284C22.6578 24.6417 22.674 24.649 22.6945 24.649H23.517V26.5701C23.517 26.6097 23.5302 26.645 23.5581 26.6729C23.586 26.7022 23.6183 26.7155 23.658 26.7155Z" fill="#0012AE"/>
<path d="M15.4174 26.2267H15.6744C15.6949 26.2267 15.7111 26.2194 15.7243 26.2062C15.7375 26.193 15.7449 26.1753 15.7449 26.1562V24.3967C15.7449 24.3556 15.7317 24.3218 15.7037 24.2939C15.6758 24.266 15.6421 24.2513 15.6024 24.2513H15.0942C15.0737 24.2513 15.0575 24.2587 15.0443 24.2719C15.0311 24.2851 15.0237 24.3027 15.0237 24.3233V24.5789C15.0237 24.5994 15.0311 24.6156 15.0443 24.6303C15.0575 24.6435 15.0737 24.6508 15.0942 24.6508H15.3483V26.1577C15.3483 26.1783 15.3542 26.1944 15.3689 26.2076C15.3806 26.2209 15.3983 26.2267 15.4174 26.2267ZM13.6872 26.2267H13.9516C13.9707 26.2267 13.9883 26.2194 14.0015 26.2062C14.0147 26.193 14.0221 26.1753 14.0221 26.1562V25.9433C14.0221 25.8361 14.0441 25.7435 14.0896 25.6672C14.1352 25.5908 14.2027 25.5027 14.2923 25.4043C14.3716 25.3147 14.4363 25.2354 14.4862 25.1663C14.5361 25.0973 14.5773 25.0106 14.611 24.9064C14.6448 24.8021 14.6624 24.6802 14.6624 24.5407V24.3953C14.6624 24.3541 14.6492 24.3204 14.6213 24.2925C14.5934 24.2646 14.5596 24.2499 14.52 24.2499H13.6314V23.8151C13.6314 23.7946 13.6241 23.7784 13.6109 23.7652C13.5976 23.752 13.5815 23.7446 13.5609 23.7446H13.3039C13.2848 23.7446 13.2672 23.752 13.254 23.7652C13.2407 23.7784 13.2349 23.796 13.2349 23.8151V24.5025C13.2349 24.5436 13.2481 24.5774 13.276 24.6053C13.3039 24.6332 13.3377 24.6479 13.3773 24.6479H14.2718V24.6508C14.2718 24.7316 14.2512 24.8036 14.2101 24.8667C14.169 24.9299 14.1043 25.0077 14.0162 25.1032C13.9325 25.1928 13.8635 25.2735 13.8091 25.3455C13.7548 25.4175 13.7093 25.5056 13.6725 25.6099C13.6343 25.7142 13.6167 25.8346 13.6167 25.9682V26.1533C13.6167 26.1739 13.6226 26.19 13.6358 26.2032C13.6505 26.2209 13.6667 26.2267 13.6872 26.2267Z" fill="#0012AE"/>
<path d="M11.3694 26.2264H11.6265C11.647 26.2264 11.6632 26.219 11.6764 26.2058C11.6896 26.1926 11.697 26.175 11.697 26.1559V24.3964C11.697 24.3553 11.6837 24.3215 11.6558 24.2936C11.6279 24.2657 11.5942 24.251 11.5545 24.251H11.0463C11.0272 24.251 11.0096 24.2583 10.9964 24.2715C10.9832 24.2848 10.9758 24.3024 10.9758 24.3229V24.5785C10.9758 24.5991 10.9817 24.6152 10.9964 24.6299C11.0096 24.6431 11.0258 24.6505 11.0463 24.6505H11.3004V26.1574C11.3004 26.1779 11.3063 26.1941 11.3195 26.2073C11.3327 26.2205 11.3489 26.2264 11.3694 26.2264Z" fill="#0012AE"/>
<path d="M12.0742 26.2264H12.4178C12.503 26.2264 12.5823 26.2044 12.6558 26.1603C12.7277 26.1162 12.7865 26.0575 12.8291 25.9826C12.8717 25.9077 12.8937 25.8269 12.8937 25.7402V24.3949C12.8937 24.3538 12.8805 24.32 12.8526 24.2921C12.8247 24.2642 12.7909 24.2495 12.7512 24.2495H12.174C12.1549 24.2495 12.1373 24.2569 12.1241 24.2701C12.1109 24.2833 12.1035 24.3009 12.1035 24.3215V24.577C12.1035 24.5976 12.1109 24.6138 12.1241 24.6284C12.1373 24.6417 12.1535 24.649 12.174 24.649H12.4971V25.7241C12.4971 25.7535 12.4869 25.7784 12.4678 25.799C12.4487 25.8196 12.4237 25.8298 12.3958 25.8298H12.0756C12.0551 25.8298 12.0389 25.8372 12.0257 25.8504C12.0125 25.8636 12.0066 25.8812 12.0066 25.9003V26.1574C12.0066 26.1779 12.0125 26.1941 12.0257 26.2073C12.0389 26.2205 12.0551 26.2264 12.0742 26.2264Z" fill="#0012AE"/>
<path d="M16.1132 26.2264H16.9357C17.0767 26.2264 17.1927 26.1809 17.2852 26.0883C17.3778 25.9958 17.4233 25.8798 17.4233 25.7417V24.3964C17.4233 24.3553 17.4101 24.3215 17.3822 24.2936C17.3543 24.2657 17.3205 24.251 17.2823 24.251H16.1426C16.122 24.251 16.1059 24.2583 16.0927 24.2715C16.0794 24.2848 16.0736 24.3024 16.0736 24.3229V24.5785C16.0736 24.5991 16.0794 24.6152 16.0927 24.6299C16.1059 24.6431 16.122 24.6505 16.1426 24.6505H17.0282V25.7432C17.0282 25.7652 17.0194 25.7858 17.0003 25.8034C16.9812 25.821 16.9607 25.8298 16.9357 25.8298H16.1132C16.0927 25.8298 16.0765 25.8372 16.0633 25.8504C16.0501 25.8636 16.0442 25.8812 16.0442 25.9003V26.1574C16.0442 26.1779 16.0501 26.1941 16.0633 26.2073C16.0765 26.2205 16.0927 26.2264 16.1132 26.2264Z" fill="#0012AE"/>
<path d="M21.8046 24.2513H21.4154C21.3949 24.2513 21.3787 24.2587 21.3655 24.2719C21.3523 24.2851 21.3449 24.3027 21.3449 24.3233V24.5524C21.3449 24.573 21.3523 24.5891 21.3655 24.6023C21.3787 24.6156 21.3949 24.6229 21.4154 24.6229H21.5667V25.7391C21.5667 25.7641 21.5579 25.7847 21.5403 25.8037C21.5226 25.8214 21.5006 25.8302 21.4742 25.8302H21.1378V24.3233C21.1378 24.3027 21.1305 24.2866 21.1173 24.2719C21.104 24.2587 21.0879 24.2513 21.0673 24.2513H20.8397C20.8191 24.2513 20.803 24.2587 20.7897 24.2719C20.7765 24.2851 20.7707 24.3027 20.7707 24.3233V25.8302H20.4343C20.4108 25.8302 20.3888 25.8214 20.3712 25.8037C20.3535 25.7861 20.3447 25.7641 20.3447 25.7391V24.6229H20.496C20.5166 24.6229 20.5327 24.6156 20.5459 24.6023C20.5592 24.5891 20.5665 24.5715 20.5665 24.5524V24.3233C20.5665 24.3027 20.5592 24.2866 20.5459 24.2719C20.5327 24.2587 20.5166 24.2513 20.496 24.2513H20.1068C20.0671 24.2513 20.0334 24.266 20.0055 24.2939C19.9776 24.3218 19.9643 24.3556 19.9643 24.3967V25.7347C19.9643 25.8243 19.9864 25.9066 20.029 25.9829C20.0716 26.0578 20.1303 26.1181 20.2037 26.1621C20.2772 26.2062 20.3579 26.2282 20.4461 26.2282H21.4595C21.5476 26.2282 21.6284 26.2062 21.7033 26.1621C21.7782 26.1181 21.8369 26.0593 21.8795 25.9829C21.9221 25.908 21.9441 25.8243 21.9441 25.7347V24.3967C21.9441 24.3556 21.9309 24.3218 21.903 24.2939C21.8781 24.266 21.8443 24.2513 21.8046 24.2513ZM18.6572 26.2267H18.9216C18.9407 26.2267 18.9583 26.2194 18.9715 26.2062C18.9847 26.193 18.9921 26.1753 18.9921 26.1562V25.9433C18.9921 25.8361 19.0141 25.7435 19.0596 25.6672C19.1051 25.5908 19.1727 25.5027 19.2623 25.4043C19.3416 25.3147 19.4062 25.2354 19.4562 25.1663C19.5061 25.0973 19.5472 25.0106 19.581 24.9064C19.6148 24.8021 19.6324 24.6802 19.6324 24.5407V24.3953C19.6324 24.3541 19.6192 24.3204 19.5913 24.2925C19.5634 24.2646 19.5296 24.2499 19.4899 24.2499H18.6014V23.8151C18.6014 23.7946 18.594 23.7784 18.5808 23.7652C18.5676 23.752 18.5514 23.7446 18.5309 23.7446H18.2739C18.2548 23.7446 18.2371 23.752 18.2239 23.7652C18.2107 23.7784 18.2048 23.796 18.2048 23.8151V24.5025C18.2048 24.5436 18.2181 24.5774 18.246 24.6053C18.2739 24.6332 18.3076 24.6479 18.3473 24.6479H19.2417V24.6508C19.2417 24.7316 19.2212 24.8036 19.1801 24.8667C19.1389 24.9299 19.0743 25.0077 18.9862 25.1032C18.9025 25.1928 18.8334 25.2735 18.7791 25.3455C18.7248 25.4175 18.6792 25.5056 18.6425 25.6099C18.6043 25.7142 18.5867 25.8346 18.5867 25.9682V26.1533C18.5867 26.1739 18.5926 26.19 18.6058 26.2032C18.6205 26.2209 18.6381 26.2267 18.6572 26.2267Z" fill="#FF5C5C"/>
<path d="M39.2672 0.746048H37.2565C37.1537 0.746048 37.07 0.77983 37.001 0.848859C36.9334 0.916419 36.8982 1.0016 36.8982 1.10441V2.26322C36.8982 2.36602 36.9319 2.45121 37.001 2.51877C37.0685 2.58633 37.1537 2.62158 37.2565 2.62158H38.0408V8.25992C38.0408 8.38476 37.9953 8.49344 37.9042 8.58303C37.8132 8.67409 37.7001 8.71962 37.5635 8.71962H35.826V1.10441C35.826 1.0016 35.7922 0.916419 35.7232 0.848859C35.6556 0.781299 35.5705 0.746048 35.4676 0.746048H34.2927C34.1899 0.746048 34.1047 0.77983 34.0371 0.848859C33.9696 0.916419 33.9343 1.0016 33.9343 1.10441V8.71962H32.1968C32.072 8.71962 31.9633 8.67409 31.8737 8.58303C31.7827 8.49197 31.7372 8.38476 31.7372 8.25992V2.62158H32.5214C32.6242 2.62158 32.7094 2.5878 32.777 2.51877C32.8445 2.45121 32.8798 2.36602 32.8798 2.26322V1.10441C32.8798 1.0016 32.846 0.916419 32.777 0.848859C32.7094 0.781299 32.6242 0.746048 32.5214 0.746048H30.5108C30.3066 0.746048 30.1333 0.816548 29.9909 0.959011C29.8484 1.10148 29.7779 1.27478 29.7779 1.47893V8.2423C29.7779 8.69613 29.8881 9.1147 30.1098 9.4951C30.3316 9.87549 30.6327 10.1766 31.0131 10.3983C31.3935 10.6201 31.8106 10.7303 32.2659 10.7303H37.4959C37.9498 10.7303 38.3698 10.6201 38.7561 10.3983C39.1423 10.1766 39.4464 9.87549 39.6681 9.4951C39.8899 9.1147 40.0001 8.69759 40.0001 8.2423V1.47893C40.0001 1.27478 39.9296 1.10148 39.7871 0.959011C39.6446 0.818016 39.4713 0.746048 39.2672 0.746048ZM26.2692 10.7288H27.5984C27.7012 10.7288 27.7863 10.695 27.8539 10.626C27.9215 10.557 27.9567 10.4733 27.9567 10.3704V1.47746C27.9567 1.27331 27.8862 1.10001 27.7438 0.957541C27.6013 0.815077 27.428 0.74458 27.2238 0.74458H24.6007C24.4979 0.74458 24.4127 0.77836 24.3452 0.847389C24.2776 0.914949 24.2424 1.00013 24.2424 1.10294V2.39834C24.2424 2.50115 24.2761 2.58633 24.3452 2.65389C24.4142 2.72145 24.4979 2.7567 24.6007 2.7567H25.9123V10.3719C25.9123 10.4747 25.9461 10.5599 26.0151 10.6275C26.0841 10.695 26.1664 10.7288 26.2692 10.7288ZM15.2128 10.7288H16.542C16.6448 10.7288 16.73 10.695 16.7975 10.626C16.8651 10.5584 16.9003 10.4733 16.9003 10.3704V4.64692C16.9003 4.01097 17.0957 3.49986 17.4878 3.11359C17.88 2.72733 18.3881 2.53493 19.0123 2.53493C19.5234 2.53493 19.9347 2.69061 20.2475 3.00344C20.5603 3.31628 20.716 3.72751 20.716 4.23862V8.25845C20.716 8.38329 20.6705 8.49198 20.5794 8.58157C20.4884 8.67263 20.3812 8.71815 20.2563 8.71815H18.6202C18.5174 8.71815 18.4322 8.75194 18.3646 8.82096C18.2971 8.88853 18.2618 8.97371 18.2618 9.07652V10.3719C18.2618 10.4747 18.2956 10.5599 18.3646 10.6275C18.4322 10.695 18.5174 10.7303 18.6202 10.7303H20.2725C20.716 10.7303 21.1273 10.6201 21.5077 10.3983C21.888 10.1766 22.1921 9.87843 22.4182 9.50391C22.6459 9.12939 22.759 8.71962 22.759 8.27754V3.91697C22.759 3.29278 22.6033 2.72733 22.2905 2.22209C21.9776 1.71686 21.5546 1.31591 21.0215 1.0207C20.4869 0.725488 19.8906 0.577148 19.2326 0.577148C18.7553 0.577148 18.3015 0.6873 17.8697 0.909074C17.4379 1.13085 17.0795 1.429 16.7961 1.80351V1.241C16.7961 1.10441 16.7476 0.988384 16.6507 0.89145C16.5537 0.794516 16.4377 0.746048 16.3011 0.746048H14.0702C13.9908 0.746048 13.9189 0.773954 13.8572 0.831233C13.794 0.888512 13.7632 0.961949 13.7632 1.05301V2.39834C13.7632 2.47765 13.794 2.54961 13.8572 2.6113C13.9189 2.67445 13.9908 2.7053 14.0702 2.7053H14.853V10.3719C14.853 10.4747 14.8867 10.5599 14.9558 10.6275C15.0248 10.695 15.11 10.7288 15.2128 10.7288ZM10.3059 10.7288H11.635C11.7379 10.7288 11.823 10.695 11.8906 10.626C11.9582 10.5584 11.9934 10.4733 11.9934 10.3704V1.47746C11.9934 1.27331 11.9229 1.10001 11.7804 0.957541C11.638 0.815077 11.4647 0.74458 11.2605 0.74458H5.4856C5.38279 0.74458 5.2976 0.77836 5.23004 0.847389C5.16248 0.914949 5.12723 1.00013 5.12723 1.10294V2.39834C5.12723 2.50115 5.16101 2.58633 5.23004 2.65389C5.29907 2.72145 5.38279 2.7567 5.4856 2.7567H9.94898V10.3719C9.94898 10.4747 9.98276 10.5599 10.0518 10.6275C10.1193 10.695 10.2045 10.7288 10.3059 10.7288ZM2.01065 6.82794H3.33982C3.44263 6.82794 3.52782 6.79416 3.59538 6.72513C3.66294 6.65757 3.69819 6.57238 3.69819 6.46957V1.47893C3.69819 1.27478 3.62769 1.10148 3.48523 0.959011C3.34276 0.816548 3.16945 0.746048 2.96531 0.746048H0.358363C0.255554 0.746048 0.170369 0.77983 0.102809 0.848859C0.0352484 0.916419 0 1.0016 0 1.10441V2.39981C0 2.50262 0.0337797 2.5878 0.102809 2.65536C0.171838 2.72292 0.255554 2.75817 0.358363 2.75817H1.65376V6.47251C1.65376 6.57532 1.68754 6.66051 1.75657 6.72807C1.82266 6.79416 1.90784 6.82794 2.01065 6.82794Z" fill="#0012AE"/>
</svg>
